<svg xmlns="http://www.w3.org/2000/svg" xmlns:xlink="http://www.w3.org/1999/xlink" width="1000" zoomAndPan="magnify" viewBox="0 0 750 374.999991" height="500" preserveAspectRatio="xMidYMid meet" version="1.0"><defs><g/><clipPath id="ac5fcc9ed0"><path d="M 291.070312 74.261719 L 355 74.261719 L 355 252 L 291.070312 252 Z M 291.070312 74.261719 " clip-rule="nonzero"/></clipPath><clipPath id="0063a7abe6"><path d="M 363 108 L 427 108 L 427 285.761719 L 363 285.761719 Z M 363 108 " clip-rule="nonzero"/></clipPath><clipPath id="a5b3a7bb24"><path d="M 448 81 L 459.070312 81 L 459.070312 93 L 448 93 Z M 448 81 " clip-rule="nonzero"/></clipPath></defs><rect x="-75" width="900" fill="#ffffff" y="-37.499999" height="449.999989" fill-opacity="1"/><rect x="-75" width="900" fill="#ffffff" y="-37.499999" height="449.999989" fill-opacity="1"/><g fill="#393536" fill-opacity="0.4"><g transform="translate(25.280737, 228.504002)"><g><path d="M 35.4375 2.5 C 28.207031 2.5 21.71875 0.878906 15.96875 -2.359375 C 10.226562 -5.609375 5.597656 -10.289062 2.078125 -16.40625 L 16.265625 -28.21875 C 21.078125 -19.59375 27.421875 -15.28125 35.296875 -15.28125 C 38.816406 -15.28125 41.664062 -16.140625 43.84375 -17.859375 C 46.019531 -19.578125 47.109375 -21.820312 47.109375 -24.59375 C 47.109375 -27.1875 46.039062 -29.429688 43.90625 -31.328125 C 41.78125 -33.234375 37.941406 -35.390625 32.390625 -37.796875 C 23.765625 -41.597656 17.484375 -45.835938 13.546875 -50.515625 C 9.609375 -55.203125 7.640625 -60.785156 7.640625 -67.265625 C 7.640625 -71.347656 8.378906 -75.101562 9.859375 -78.53125 C 11.347656 -81.957031 13.4375 -84.894531 16.125 -87.34375 C 18.8125 -89.800781 22.003906 -91.703125 25.703125 -93.046875 C 29.410156 -94.390625 33.488281 -95.0625 37.9375 -95.0625 C 49.707031 -95.0625 59.671875 -90.015625 67.828125 -79.921875 L 54.34375 -67.6875 C 51.75 -71.113281 49.15625 -73.632812 46.5625 -75.25 C 43.96875 -76.875 41.09375 -77.6875 37.9375 -77.6875 C 34.882812 -77.6875 32.453125 -76.921875 30.640625 -75.390625 C 28.835938 -73.867188 27.9375 -71.8125 27.9375 -69.21875 C 27.9375 -66.34375 29.140625 -63.976562 31.546875 -62.125 C 33.953125 -60.269531 37.566406 -58.28125 42.390625 -56.15625 C 51.191406 -52.257812 57.5625 -47.925781 61.5 -43.15625 C 65.4375 -38.382812 67.40625 -32.753906 67.40625 -26.265625 C 67.40625 -22.003906 66.617188 -18.113281 65.046875 -14.59375 C 63.472656 -11.070312 61.296875 -8.035156 58.515625 -5.484375 C 55.734375 -2.941406 52.375 -0.976562 48.4375 0.40625 C 44.5 1.800781 40.164062 2.5 35.4375 2.5 Z M 35.4375 2.5 "/></g></g></g><g fill="#393536" fill-opacity="0.4"><g transform="translate(112.287956, 228.504002)"><g><path d="M 10.421875 -93.125 L 63.65625 -93.125 L 63.65625 -74.078125 L 30.71875 -74.078125 L 30.71875 -56.984375 L 54.765625 -56.984375 L 54.765625 -37.9375 L 30.71875 -37.9375 L 30.71875 -19.046875 L 64.34375 -19.046875 L 64.34375 0 L 10.421875 0 Z M 10.421875 -93.125 "/></g></g></g><g fill="#393536" fill-opacity="0.4"><g transform="translate(197.905298, 228.504002)"><g><path d="M 10.421875 -93.125 L 37.53125 -93.125 C 42.25 -93.125 46.597656 -92.453125 50.578125 -91.109375 C 54.566406 -89.765625 58 -87.929688 60.875 -85.609375 C 63.75 -83.296875 65.992188 -80.539062 67.609375 -77.34375 C 69.234375 -74.144531 70.046875 -70.691406 70.046875 -66.984375 C 70.046875 -63.097656 69.140625 -59.578125 67.328125 -56.421875 C 65.523438 -53.273438 63.003906 -50.585938 59.765625 -48.359375 C 64.023438 -46.234375 67.359375 -43.316406 69.765625 -39.609375 C 72.179688 -35.898438 73.390625 -31.734375 73.390625 -27.109375 C 73.390625 -23.210938 72.550781 -19.617188 70.875 -16.328125 C 69.207031 -13.035156 66.914062 -10.160156 64 -7.703125 C 61.082031 -5.253906 57.5625 -3.359375 53.4375 -2.015625 C 49.3125 -0.671875 44.84375 0 40.03125 0 L 10.421875 0 Z M 39.328125 -16.671875 C 43.585938 -16.671875 46.945312 -17.664062 49.40625 -19.65625 C 51.863281 -21.65625 53.09375 -24.414062 53.09375 -27.9375 C 53.09375 -31.363281 51.882812 -34.050781 49.46875 -36 C 47.0625 -37.945312 43.679688 -38.921875 39.328125 -38.921875 L 30.71875 -38.921875 L 30.71875 -16.671875 Z M 37.53125 -55.59375 C 41.226562 -55.59375 44.1875 -56.539062 46.40625 -58.4375 C 48.632812 -60.34375 49.75 -62.914062 49.75 -66.15625 C 49.75 -69.394531 48.632812 -71.914062 46.40625 -73.71875 C 44.1875 -75.53125 41.226562 -76.4375 37.53125 -76.4375 L 30.71875 -76.4375 L 30.71875 -55.59375 Z M 37.53125 -55.59375 "/></g></g></g><g fill="#393536" fill-opacity="0.4"><g transform="translate(291.166968, 228.504002)"><g/></g></g><g fill="#393536" fill-opacity="0.4"><g transform="translate(336.060772, 228.504002)"><g><path d="M 37.796875 -93.125 L 57.8125 -93.125 L 19.875 16.671875 L 0 16.671875 Z M 37.796875 -93.125 "/></g></g></g><g fill="#393536" fill-opacity="0.4"><g transform="translate(408.196255, 228.504002)"><g/></g></g><g fill="#393536" fill-opacity="0.4"><g transform="translate(453.090059, 228.504002)"><g><path d="M 10.421875 -93.125 L 47.25 -93.125 C 54.195312 -93.125 60.613281 -91.941406 66.5 -89.578125 C 72.382812 -87.210938 77.476562 -83.96875 81.78125 -79.84375 C 86.09375 -75.71875 89.476562 -70.804688 91.9375 -65.109375 C 94.394531 -59.410156 95.625 -53.226562 95.625 -46.5625 C 95.625 -39.882812 94.394531 -33.71875 91.9375 -28.0625 C 89.476562 -22.414062 86.09375 -17.507812 81.78125 -13.34375 C 77.476562 -9.175781 72.382812 -5.910156 66.5 -3.546875 C 60.613281 -1.179688 54.195312 0 47.25 0 L 10.421875 0 Z M 47.390625 -19.046875 C 51.285156 -19.046875 54.851562 -19.738281 58.09375 -21.125 C 61.332031 -22.507812 64.15625 -24.429688 66.5625 -26.890625 C 68.976562 -29.347656 70.859375 -32.242188 72.203125 -35.578125 C 73.546875 -38.910156 74.21875 -42.570312 74.21875 -46.5625 C 74.21875 -50.539062 73.546875 -54.195312 72.203125 -57.53125 C 70.859375 -60.875 68.976562 -63.769531 66.5625 -66.21875 C 64.15625 -68.675781 61.332031 -70.597656 58.09375 -71.984375 C 54.851562 -73.378906 51.285156 -74.078125 47.390625 -74.078125 L 30.71875 -74.078125 L 30.71875 -19.046875 Z M 47.390625 -19.046875 "/></g></g></g><g fill="#393536" fill-opacity="0.4"><g transform="translate(567.894938, 228.504002)"><g><path d="M 10.421875 -93.125 L 63.65625 -93.125 L 63.65625 -74.078125 L 30.71875 -74.078125 L 30.71875 -56.984375 L 54.765625 -56.984375 L 54.765625 -37.9375 L 30.71875 -37.9375 L 30.71875 -19.046875 L 64.34375 -19.046875 L 64.34375 0 L 10.421875 0 Z M 10.421875 -93.125 "/></g></g></g><g fill="#393536" fill-opacity="0.4"><g transform="translate(653.512291, 228.504002)"><g><path d="M 0.6875 -93.125 L 21.828125 -93.125 L 42.109375 -37.671875 L 62.6875 -93.125 L 83.53125 -93.125 L 47.390625 1.671875 L 36.6875 1.671875 Z M 0.6875 -93.125 "/></g></g></g><g fill="#393536" fill-opacity="1"><g transform="translate(18.759103, 223.031702)"><g><path d="M 35.4375 2.5 C 28.207031 2.5 21.71875 0.878906 15.96875 -2.359375 C 10.226562 -5.609375 5.597656 -10.289062 2.078125 -16.40625 L 16.265625 -28.21875 C 21.078125 -19.59375 27.421875 -15.28125 35.296875 -15.28125 C 38.816406 -15.28125 41.664062 -16.140625 43.84375 -17.859375 C 46.019531 -19.578125 47.109375 -21.820312 47.109375 -24.59375 C 47.109375 -27.1875 46.039062 -29.429688 43.90625 -31.328125 C 41.78125 -33.234375 37.941406 -35.390625 32.390625 -37.796875 C 23.765625 -41.597656 17.484375 -45.835938 13.546875 -50.515625 C 9.609375 -55.203125 7.640625 -60.785156 7.640625 -67.265625 C 7.640625 -71.347656 8.378906 -75.101562 9.859375 -78.53125 C 11.347656 -81.957031 13.4375 -84.894531 16.125 -87.34375 C 18.8125 -89.800781 22.003906 -91.703125 25.703125 -93.046875 C 29.410156 -94.390625 33.488281 -95.0625 37.9375 -95.0625 C 49.707031 -95.0625 59.671875 -90.015625 67.828125 -79.921875 L 54.34375 -67.6875 C 51.75 -71.113281 49.15625 -73.632812 46.5625 -75.25 C 43.96875 -76.875 41.09375 -77.6875 37.9375 -77.6875 C 34.882812 -77.6875 32.453125 -76.921875 30.640625 -75.390625 C 28.835938 -73.867188 27.9375 -71.8125 27.9375 -69.21875 C 27.9375 -66.34375 29.140625 -63.976562 31.546875 -62.125 C 33.953125 -60.269531 37.566406 -58.28125 42.390625 -56.15625 C 51.191406 -52.257812 57.5625 -47.925781 61.5 -43.15625 C 65.4375 -38.382812 67.40625 -32.753906 67.40625 -26.265625 C 67.40625 -22.003906 66.617188 -18.113281 65.046875 -14.59375 C 63.472656 -11.070312 61.296875 -8.035156 58.515625 -5.484375 C 55.734375 -2.941406 52.375 -0.976562 48.4375 0.40625 C 44.5 1.800781 40.164062 2.5 35.4375 2.5 Z M 35.4375 2.5 "/></g></g></g><g fill="#393536" fill-opacity="1"><g transform="translate(105.766322, 223.031702)"><g><path d="M 10.421875 -93.125 L 63.65625 -93.125 L 63.65625 -74.078125 L 30.71875 -74.078125 L 30.71875 -56.984375 L 54.765625 -56.984375 L 54.765625 -37.9375 L 30.71875 -37.9375 L 30.71875 -19.046875 L 64.34375 -19.046875 L 64.34375 0 L 10.421875 0 Z M 10.421875 -93.125 "/></g></g></g><g fill="#393536" fill-opacity="1"><g transform="translate(191.383664, 223.031702)"><g><path d="M 10.421875 -93.125 L 37.53125 -93.125 C 42.25 -93.125 46.597656 -92.453125 50.578125 -91.109375 C 54.566406 -89.765625 58 -87.929688 60.875 -85.609375 C 63.75 -83.296875 65.992188 -80.539062 67.609375 -77.34375 C 69.234375 -74.144531 70.046875 -70.691406 70.046875 -66.984375 C 70.046875 -63.097656 69.140625 -59.578125 67.328125 -56.421875 C 65.523438 -53.273438 63.003906 -50.585938 59.765625 -48.359375 C 64.023438 -46.234375 67.359375 -43.316406 69.765625 -39.609375 C 72.179688 -35.898438 73.390625 -31.734375 73.390625 -27.109375 C 73.390625 -23.210938 72.550781 -19.617188 70.875 -16.328125 C 69.207031 -13.035156 66.914062 -10.160156 64 -7.703125 C 61.082031 -5.253906 57.5625 -3.359375 53.4375 -2.015625 C 49.3125 -0.671875 44.84375 0 40.03125 0 L 10.421875 0 Z M 39.328125 -16.671875 C 43.585938 -16.671875 46.945312 -17.664062 49.40625 -19.65625 C 51.863281 -21.65625 53.09375 -24.414062 53.09375 -27.9375 C 53.09375 -31.363281 51.882812 -34.050781 49.46875 -36 C 47.0625 -37.945312 43.679688 -38.921875 39.328125 -38.921875 L 30.71875 -38.921875 L 30.71875 -16.671875 Z M 37.53125 -55.59375 C 41.226562 -55.59375 44.1875 -56.539062 46.40625 -58.4375 C 48.632812 -60.34375 49.75 -62.914062 49.75 -66.15625 C 49.75 -69.394531 48.632812 -71.914062 46.40625 -73.71875 C 44.1875 -75.53125 41.226562 -76.4375 37.53125 -76.4375 L 30.71875 -76.4375 L 30.71875 -55.59375 Z M 37.53125 -55.59375 "/></g></g></g><g fill="#393536" fill-opacity="1"><g transform="translate(284.645334, 223.031702)"><g/></g></g><g fill="#393536" fill-opacity="1"><g transform="translate(329.539138, 223.031702)"><g><path d="M 37.796875 -93.125 L 57.8125 -93.125 L 19.875 16.671875 L 0 16.671875 Z M 37.796875 -93.125 "/></g></g></g><g fill="#393536" fill-opacity="1"><g transform="translate(401.674621, 223.031702)"><g/></g></g><g fill="#393536" fill-opacity="1"><g transform="translate(446.568425, 223.031702)"><g><path d="M 10.421875 -93.125 L 47.25 -93.125 C 54.195312 -93.125 60.613281 -91.941406 66.5 -89.578125 C 72.382812 -87.210938 77.476562 -83.96875 81.78125 -79.84375 C 86.09375 -75.71875 89.476562 -70.804688 91.9375 -65.109375 C 94.394531 -59.410156 95.625 -53.226562 95.625 -46.5625 C 95.625 -39.882812 94.394531 -33.71875 91.9375 -28.0625 C 89.476562 -22.414062 86.09375 -17.507812 81.78125 -13.34375 C 77.476562 -9.175781 72.382812 -5.910156 66.5 -3.546875 C 60.613281 -1.179688 54.195312 0 47.25 0 L 10.421875 0 Z M 47.390625 -19.046875 C 51.285156 -19.046875 54.851562 -19.738281 58.09375 -21.125 C 61.332031 -22.507812 64.15625 -24.429688 66.5625 -26.890625 C 68.976562 -29.347656 70.859375 -32.242188 72.203125 -35.578125 C 73.546875 -38.910156 74.21875 -42.570312 74.21875 -46.5625 C 74.21875 -50.539062 73.546875 -54.195312 72.203125 -57.53125 C 70.859375 -60.875 68.976562 -63.769531 66.5625 -66.21875 C 64.15625 -68.675781 61.332031 -70.597656 58.09375 -71.984375 C 54.851562 -73.378906 51.285156 -74.078125 47.390625 -74.078125 L 30.71875 -74.078125 L 30.71875 -19.046875 Z M 47.390625 -19.046875 "/></g></g></g><g fill="#393536" fill-opacity="1"><g transform="translate(561.373303, 223.031702)"><g><path d="M 10.421875 -93.125 L 63.65625 -93.125 L 63.65625 -74.078125 L 30.71875 -74.078125 L 30.71875 -56.984375 L 54.765625 -56.984375 L 54.765625 -37.9375 L 30.71875 -37.9375 L 30.71875 -19.046875 L 64.34375 -19.046875 L 64.34375 0 L 10.421875 0 Z M 10.421875 -93.125 "/></g></g></g><g fill="#393536" fill-opacity="1"><g transform="translate(646.990657, 223.031702)"><g><path d="M 0.6875 -93.125 L 21.828125 -93.125 L 42.109375 -37.671875 L 62.6875 -93.125 L 83.53125 -93.125 L 47.390625 1.671875 L 36.6875 1.671875 Z M 0.6875 -93.125 "/></g></g></g><g clip-path="url(#ac5fcc9ed0)"><path fill="#393536" d="M 291.125 173.800781 L 291.125 151.703125 C 295.605469 151.457031 298.984375 150.78125 301.257812 149.675781 C 303.53125 148.570312 305.496094 146.71875 307.15625 144.105469 C 308.816406 141.496094 309.949219 138.230469 310.566406 134.300781 C 311.054688 131.355469 311.300781 126.226562 311.300781 118.921875 C 311.300781 107.015625 311.855469 98.710938 312.960938 94.015625 C 314.066406 89.320312 316.0625 85.546875 318.949219 82.691406 C 321.835938 79.835938 326.042969 77.582031 331.574219 75.925781 C 335.320312 74.820312 341.214844 74.265625 349.265625 74.265625 L 354.148438 74.265625 L 354.148438 96.273438 C 347.328125 96.273438 342.953125 96.65625 341.019531 97.425781 C 339.082031 98.191406 337.65625 99.355469 336.734375 100.921875 C 335.8125 102.488281 335.351562 105.171875 335.351562 108.980469 C 335.351562 112.847656 335.074219 120.183594 334.519531 130.984375 C 334.214844 137.0625 333.417969 141.988281 332.125 145.761719 C 330.835938 149.539062 329.191406 152.652344 327.195312 155.109375 C 325.199219 157.5625 322.140625 160.113281 318.027344 162.753906 C 321.652344 164.839844 324.617188 167.277344 326.921875 170.070312 C 329.222656 172.863281 330.988281 176.253906 332.21875 180.246094 C 333.445312 184.234375 334.246094 189.578125 334.613281 196.265625 C 335.042969 206.457031 335.257812 212.960938 335.257812 215.785156 C 335.257812 219.835938 335.75 222.660156 336.734375 224.257812 C 337.714844 225.851562 339.203125 227.066406 341.203125 227.894531 C 343.195312 228.722656 347.511719 229.136719 354.148438 229.136719 L 354.148438 251.234375 L 349.265625 251.234375 C 340.972656 251.234375 334.613281 250.574219 330.191406 249.253906 C 325.769531 247.933594 322.035156 245.742188 318.996094 242.671875 C 315.957031 239.601562 313.910156 235.8125 312.867188 231.300781 C 311.824219 226.789062 311.300781 219.683594 311.300781 209.984375 C 311.300781 198.691406 310.808594 191.355469 309.828125 187.980469 C 308.476562 183.070312 306.433594 179.554688 303.699219 177.4375 C 300.964844 175.320312 296.773438 174.105469 291.125 173.800781 " fill-opacity="1" fill-rule="nonzero"/></g><path fill="#eeb30d" d="M 430.914062 120.109375 L 416.488281 120.109375 L 416.488281 105.699219 L 430.914062 105.699219 L 430.914062 120.109375 " fill-opacity="1" fill-rule="nonzero"/><path fill="#eeb30d" d="M 427.507812 148.929688 L 416.488281 148.929688 L 416.488281 137.921875 L 427.507812 137.921875 L 427.507812 148.929688 " fill-opacity="1" fill-rule="nonzero"/><g clip-path="url(#0063a7abe6)"><path fill="#eeb30d" d="M 385.550781 131.121094 L 385.550781 120.109375 L 396.570312 120.109375 L 396.570312 131.121094 Z M 413.582031 182.597656 C 410.816406 180.480469 408.757812 176.96875 407.40625 172.058594 C 406.664062 169.285156 406.222656 163.976562 406.078125 156.136719 L 396.570312 156.136719 L 396.570312 141.726562 L 405.867188 141.726562 C 405.636719 136.167969 405.152344 131.839844 404.410156 128.734375 C 403.335938 124.222656 401.292969 120.417969 398.285156 117.320312 C 395.273438 114.21875 391.558594 112.023438 387.136719 110.734375 C 382.710938 109.445312 376.355469 108.800781 368.0625 108.800781 L 363.179688 108.800781 L 363.179688 130.808594 C 370.121094 130.808594 374.589844 131.222656 376.585938 132.050781 C 378.582031 132.878906 379.960938 134.0625 380.730469 135.59375 C 381.5 137.128906 381.914062 140.199219 381.976562 144.800781 C 382.28125 159.410156 382.773438 168.863281 383.449219 173.164062 C 384.492188 179.421875 386.457031 184.578125 389.347656 188.628906 C 391.433594 191.453125 394.75 194.339844 399.296875 197.285156 C 395.796875 199.308594 392.921875 201.660156 390.683594 204.328125 C 388.4375 207 386.644531 210.253906 385.292969 214.089844 C 383.941406 217.925781 383.113281 223.035156 382.804688 229.417969 C 382.3125 239.976562 382.050781 247.128906 382.023438 250.871094 C 381.988281 254.617188 381.5 257.273438 380.546875 258.835938 C 379.59375 260.402344 378.105469 261.601562 376.078125 262.429688 C 374.050781 263.257812 369.75 263.671875 363.179688 263.671875 L 363.179688 285.769531 L 368.0625 285.769531 C 376.109375 285.769531 382.003906 285.214844 385.753906 284.113281 C 391.34375 282.453125 395.578125 280.199219 398.46875 277.34375 C 401.355469 274.492188 403.335938 270.699219 404.410156 265.972656 C 405.484375 261.246094 406.023438 252.929688 406.023438 241.019531 C 406.023438 233.777344 406.269531 228.683594 406.761719 225.734375 C 407.4375 221.808594 408.589844 218.539062 410.214844 215.929688 C 411.84375 213.320312 413.792969 211.464844 416.066406 210.359375 C 418.339844 209.253906 421.71875 208.578125 426.203125 208.335938 L 426.203125 186.234375 C 420.550781 185.929688 416.34375 184.714844 413.582031 182.597656 " fill-opacity="1" fill-rule="nonzero"/></g><g clip-path="url(#a5b3a7bb24)"><path fill="#eeb30d" d="M 459.03125 92.121094 L 448.011719 92.121094 L 448.011719 81.109375 L 459.03125 81.109375 L 459.03125 92.121094 " fill-opacity="1" fill-rule="nonzero"/></g><path fill="#eeb30d" d="M 403.78125 105.699219 L 383.210938 105.699219 L 383.210938 85.144531 L 403.78125 85.144531 L 403.78125 105.699219 " fill-opacity="1" fill-rule="nonzero"/><g fill="#eeb30d" fill-opacity="1"><g transform="translate(471.096529, 259.457078)"><g><path d="M 5.390625 0 L 5.390625 -13.921875 L 0.625 -13.921875 L 0.625 -16.3125 L 13.140625 -16.3125 L 13.140625 -13.921875 L 8.375 -13.921875 L 8.375 0 Z M 5.390625 0 "/></g></g></g><g fill="#eeb30d" fill-opacity="1"><g transform="translate(495.375894, 259.457078)"><g><path d="M 1.578125 0 L 1.578125 -16.3125 L 12.234375 -16.3125 L 12.234375 -13.921875 L 4.5625 -13.921875 L 4.5625 -9.4375 L 11.546875 -9.4375 L 11.546875 -7.109375 L 4.5625 -7.109375 L 4.5625 -2.40625 L 12.234375 -2.40625 L 12.234375 0 Z M 1.578125 0 "/></g></g></g><g fill="#eeb30d" fill-opacity="1"><g transform="translate(519.352523, 259.457078)"><g><path d="M 8.96875 0.28125 C 7.320312 0.28125 5.90625 -0.0703125 4.71875 -0.78125 C 3.539062 -1.488281 2.632812 -2.472656 2 -3.734375 C 1.363281 -5.003906 1.046875 -6.472656 1.046875 -8.140625 C 1.046875 -9.796875 1.363281 -11.257812 2 -12.53125 C 2.632812 -13.8125 3.539062 -14.804688 4.71875 -15.515625 C 5.90625 -16.234375 7.320312 -16.59375 8.96875 -16.59375 C 10.925781 -16.59375 12.53125 -16.109375 13.78125 -15.140625 C 15.039062 -14.171875 15.820312 -12.804688 16.125 -11.046875 L 12.84375 -11.046875 C 12.644531 -11.929688 12.210938 -12.625 11.546875 -13.125 C 10.890625 -13.632812 10.015625 -13.890625 8.921875 -13.890625 C 7.421875 -13.890625 6.242188 -13.375 5.390625 -12.34375 C 4.535156 -11.320312 4.109375 -9.921875 4.109375 -8.140625 C 4.109375 -6.347656 4.535156 -4.941406 5.390625 -3.921875 C 6.242188 -2.910156 7.421875 -2.40625 8.921875 -2.40625 C 10.015625 -2.40625 10.890625 -2.640625 11.546875 -3.109375 C 12.210938 -3.585938 12.644531 -4.242188 12.84375 -5.078125 L 16.125 -5.078125 C 15.820312 -3.398438 15.039062 -2.085938 13.78125 -1.140625 C 12.53125 -0.191406 10.925781 0.28125 8.96875 0.28125 Z M 8.96875 0.28125 "/></g></g></g><g fill="#eeb30d" fill-opacity="1"><g transform="translate(547.031743, 259.457078)"><g><path d="M 1.578125 0 L 1.578125 -16.3125 L 4.5625 -16.3125 L 4.5625 -9.53125 L 11.890625 -9.53125 L 11.890625 -16.3125 L 14.875 -16.3125 L 14.875 0 L 11.890625 0 L 11.890625 -7.109375 L 4.5625 -7.109375 L 4.5625 0 Z M 1.578125 0 "/></g></g></g><g fill="#eeb30d" fill-opacity="1"><g transform="translate(573.989084, 259.457078)"><g><path d="M 1.578125 0 L 1.578125 -16.3125 L 4.5625 -16.3125 L 12.234375 -4.828125 L 12.234375 -16.3125 L 15.21875 -16.3125 L 15.21875 0 L 12.234375 0 L 4.5625 -11.46875 L 4.5625 0 Z M 1.578125 0 "/></g></g></g><g fill="#eeb30d" fill-opacity="1"><g transform="translate(601.295713, 259.457078)"><g><path d="M 9.234375 0.28125 C 7.597656 0.28125 6.171875 -0.0703125 4.953125 -0.78125 C 3.734375 -1.5 2.773438 -2.492188 2.078125 -3.765625 C 1.390625 -5.035156 1.046875 -6.5 1.046875 -8.15625 C 1.046875 -9.820312 1.390625 -11.285156 2.078125 -12.546875 C 2.773438 -13.816406 3.734375 -14.804688 4.953125 -15.515625 C 6.171875 -16.234375 7.597656 -16.59375 9.234375 -16.59375 C 10.847656 -16.59375 12.269531 -16.234375 13.5 -15.515625 C 14.726562 -14.804688 15.679688 -13.816406 16.359375 -12.546875 C 17.046875 -11.285156 17.390625 -9.820312 17.390625 -8.15625 C 17.390625 -6.5 17.046875 -5.035156 16.359375 -3.765625 C 15.679688 -2.492188 14.726562 -1.5 13.5 -0.78125 C 12.269531 -0.0703125 10.847656 0.28125 9.234375 0.28125 Z M 9.234375 -2.40625 C 10.785156 -2.40625 12.023438 -2.914062 12.953125 -3.9375 C 13.878906 -4.96875 14.34375 -6.375 14.34375 -8.15625 C 14.34375 -9.945312 13.878906 -11.351562 12.953125 -12.375 C 12.023438 -13.40625 10.785156 -13.921875 9.234375 -13.921875 C 7.679688 -13.921875 6.4375 -13.40625 5.5 -12.375 C 4.570312 -11.351562 4.109375 -9.945312 4.109375 -8.15625 C 4.109375 -6.375 4.570312 -4.96875 5.5 -3.9375 C 6.4375 -2.914062 7.679688 -2.40625 9.234375 -2.40625 Z M 9.234375 -2.40625 "/></g></g></g><g fill="#eeb30d" fill-opacity="1"><g transform="translate(630.232429, 259.457078)"><g><path d="M 1.578125 0 L 1.578125 -16.3125 L 4.5625 -16.3125 L 4.5625 -2.328125 L 11.796875 -2.328125 L 11.796875 0 Z M 1.578125 0 "/></g></g></g><g fill="#eeb30d" fill-opacity="1"><g transform="translate(653.580311, 259.457078)"><g><path d="M 9.234375 0.28125 C 7.597656 0.28125 6.171875 -0.0703125 4.953125 -0.78125 C 3.734375 -1.5 2.773438 -2.492188 2.078125 -3.765625 C 1.390625 -5.035156 1.046875 -6.5 1.046875 -8.15625 C 1.046875 -9.820312 1.390625 -11.285156 2.078125 -12.546875 C 2.773438 -13.816406 3.734375 -14.804688 4.953125 -15.515625 C 6.171875 -16.234375 7.597656 -16.59375 9.234375 -16.59375 C 10.847656 -16.59375 12.269531 -16.234375 13.5 -15.515625 C 14.726562 -14.804688 15.679688 -13.816406 16.359375 -12.546875 C 17.046875 -11.285156 17.390625 -9.820312 17.390625 -8.15625 C 17.390625 -6.5 17.046875 -5.035156 16.359375 -3.765625 C 15.679688 -2.492188 14.726562 -1.5 13.5 -0.78125 C 12.269531 -0.0703125 10.847656 0.28125 9.234375 0.28125 Z M 9.234375 -2.40625 C 10.785156 -2.40625 12.023438 -2.914062 12.953125 -3.9375 C 13.878906 -4.96875 14.34375 -6.375 14.34375 -8.15625 C 14.34375 -9.945312 13.878906 -11.351562 12.953125 -12.375 C 12.023438 -13.40625 10.785156 -13.921875 9.234375 -13.921875 C 7.679688 -13.921875 6.4375 -13.40625 5.5 -12.375 C 4.570312 -11.351562 4.109375 -9.945312 4.109375 -8.15625 C 4.109375 -6.375 4.570312 -4.96875 5.5 -3.9375 C 6.4375 -2.914062 7.679688 -2.40625 9.234375 -2.40625 Z M 9.234375 -2.40625 "/></g></g></g><g fill="#eeb30d" fill-opacity="1"><g transform="translate(682.517026, 259.457078)"><g><path d="M 8.71875 0.28125 C 7.175781 0.28125 5.828125 -0.0664062 4.671875 -0.765625 C 3.523438 -1.460938 2.632812 -2.4375 2 -3.6875 C 1.363281 -4.945312 1.046875 -6.40625 1.046875 -8.0625 C 1.046875 -9.738281 1.375 -11.21875 2.03125 -12.5 C 2.695312 -13.789062 3.640625 -14.796875 4.859375 -15.515625 C 6.078125 -16.234375 7.523438 -16.59375 9.203125 -16.59375 C 11.117188 -16.59375 12.707031 -16.132812 13.96875 -15.21875 C 15.226562 -14.300781 16.039062 -13.035156 16.40625 -11.421875 L 13.078125 -11.421875 C 12.828125 -12.179688 12.375 -12.773438 11.71875 -13.203125 C 11.070312 -13.628906 10.234375 -13.84375 9.203125 -13.84375 C 7.578125 -13.84375 6.320312 -13.328125 5.4375 -12.296875 C 4.550781 -11.265625 4.109375 -9.847656 4.109375 -8.046875 C 4.109375 -6.242188 4.546875 -4.847656 5.421875 -3.859375 C 6.296875 -2.867188 7.488281 -2.375 9 -2.375 C 10.476562 -2.375 11.59375 -2.773438 12.34375 -3.578125 C 13.09375 -4.378906 13.546875 -5.429688 13.703125 -6.734375 L 9.578125 -6.734375 L 9.578125 -8.96875 L 16.71875 -8.96875 L 16.71875 0 L 13.96875 0 L 13.734375 -2.140625 C 13.203125 -1.367188 12.539062 -0.769531 11.75 -0.34375 C 10.957031 0.0703125 9.945312 0.28125 8.71875 0.28125 Z M 8.71875 0.28125 "/></g></g></g><g fill="#eeb30d" fill-opacity="1"><g transform="translate(711.034587, 259.457078)"><g><path d="M 5.8125 0 L 5.8125 -5.8125 L 0.328125 -16.3125 L 3.703125 -16.3125 L 7.3125 -8.78125 L 10.90625 -16.3125 L 14.25 -16.3125 L 8.78125 -5.8125 L 8.78125 0 Z M 5.8125 0 "/></g></g></g></svg>